<mxfile host="app.diagrams.net" agent="Mozilla/5.0 (X11; Linux x86_64) AppleWebKit/537.36 (KHTML, like Gecko) Chrome/131.0.0.0 Safari/537.36" version="26.0.0" pages="2">
  <diagram name="Blocks" id="8RtZDlYGpixeSJjzs-BT">
    <mxGraphModel dx="752" dy="442" grid="1" gridSize="10" guides="1" tooltips="1" connect="1" arrows="1" fold="1" page="0" pageScale="1" pageWidth="827" pageHeight="1169" math="0" shadow="0">
      <root>
        <mxCell id="0" />
        <mxCell id="1" parent="0" />
        <mxCell id="33oWATtLTmWo8yCEAm7P-1" value="&lt;font&gt;Начало&lt;/font&gt;" style="strokeWidth=1;html=1;shape=mxgraph.flowchart.terminator;whiteSpace=wrap;fontFamily=Times New Roman;fontSize=14;fillColor=none;" parent="1" vertex="1">
          <mxGeometry x="250" y="230" width="140" height="70" as="geometry" />
        </mxCell>
        <mxCell id="33oWATtLTmWo8yCEAm7P-2" value="&lt;font&gt;Конец&lt;/font&gt;" style="strokeWidth=1;html=1;shape=mxgraph.flowchart.terminator;whiteSpace=wrap;fontFamily=Times New Roman;fontSize=14;fillColor=none;" parent="1" vertex="1">
          <mxGeometry x="250" y="310" width="140" height="70" as="geometry" />
        </mxCell>
        <mxCell id="33oWATtLTmWo8yCEAm7P-3" value="" style="rounded=0;whiteSpace=wrap;html=1;fillColor=none;fontFamily=Times New Roman;fontSize=14;" parent="1" vertex="1">
          <mxGeometry x="470" y="230" width="140" height="70" as="geometry" />
        </mxCell>
        <mxCell id="33oWATtLTmWo8yCEAm7P-4" value="" style="shape=process;whiteSpace=wrap;html=1;backgroundOutline=1;size=0.07692307692307693;fillColor=none;fontFamily=Times New Roman;fontSize=14;" parent="1" vertex="1">
          <mxGeometry x="470" y="310" width="140" height="70" as="geometry" />
        </mxCell>
        <mxCell id="lvoW0HqD9HumK42YfkLP-1" value="" style="rhombus;whiteSpace=wrap;html=1;fillColor=none;fontFamily=Times New Roman;fontSize=14;" vertex="1" parent="1">
          <mxGeometry x="470" y="390" width="140" height="70" as="geometry" />
        </mxCell>
        <mxCell id="Te0etc61Lkdm8Tveuhdw-1" value="" style="strokeWidth=1;html=1;shape=mxgraph.flowchart.annotation_1;align=left;pointerEvents=1;fontFamily=Times New Roman;fontSize=14;labelPosition=right;verticalLabelPosition=middle;verticalAlign=middle;" vertex="1" parent="1">
          <mxGeometry x="710" y="230" width="10" height="100" as="geometry" />
        </mxCell>
        <mxCell id="Fad0w2KYInPpvaPSrPJm-1" value="А" style="verticalLabelPosition=middle;verticalAlign=middle;html=1;shape=mxgraph.flowchart.on-page_reference;fillColor=none;labelPosition=center;align=center;fontFamily=Times New Roman;" vertex="1" parent="1">
          <mxGeometry x="695" y="370" width="40" height="40" as="geometry" />
        </mxCell>
      </root>
    </mxGraphModel>
  </diagram>
  <diagram id="OF21iz16KkWVT-966yPa" name="svc_process">
    <mxGraphModel dx="535" dy="715" grid="1" gridSize="10" guides="1" tooltips="1" connect="1" arrows="1" fold="1" page="0" pageScale="1" pageWidth="827" pageHeight="1169" math="0" shadow="0">
      <root>
        <mxCell id="0" />
        <mxCell id="1" parent="0" />
        <mxCell id="f9-IBuaHWKnpFaGda2p7-3" style="edgeStyle=orthogonalEdgeStyle;rounded=0;orthogonalLoop=1;jettySize=auto;html=1;exitX=0.5;exitY=1;exitDx=0;exitDy=0;exitPerimeter=0;entryX=0.5;entryY=0;entryDx=0;entryDy=0;" edge="1" parent="1" source="zOv2Q1l4p_0hKWdspPJO-1" target="W-8qz53kXuM_b5DxB52O-1">
          <mxGeometry relative="1" as="geometry" />
        </mxCell>
        <mxCell id="zOv2Q1l4p_0hKWdspPJO-1" value="&lt;font&gt;Начало&lt;/font&gt;" style="strokeWidth=1;html=1;shape=mxgraph.flowchart.terminator;whiteSpace=wrap;fontFamily=Times New Roman;fontSize=14;fillColor=none;" vertex="1" parent="1">
          <mxGeometry x="250" y="-60" width="140" height="70" as="geometry" />
        </mxCell>
        <mxCell id="zOv2Q1l4p_0hKWdspPJO-3" value="void svc_process(struct svc_rqst *rqstp)" style="strokeWidth=1;html=1;shape=mxgraph.flowchart.annotation_1;align=left;pointerEvents=1;fontFamily=Times New Roman;fontSize=14;labelPosition=right;verticalLabelPosition=middle;verticalAlign=middle;" vertex="1" parent="1">
          <mxGeometry x="410" y="-40" width="10" height="30" as="geometry" />
        </mxCell>
        <mxCell id="QtwlDBCC7AfcnxtAullJ-1" style="edgeStyle=orthogonalEdgeStyle;rounded=0;orthogonalLoop=1;jettySize=auto;html=1;exitX=1;exitY=0.5;exitDx=0;exitDy=0;exitPerimeter=0;entryX=0;entryY=0.5;entryDx=0;entryDy=0;entryPerimeter=0;endArrow=none;endFill=0;dashed=1;" edge="1" parent="1" source="zOv2Q1l4p_0hKWdspPJO-1" target="zOv2Q1l4p_0hKWdspPJO-3">
          <mxGeometry relative="1" as="geometry" />
        </mxCell>
        <mxCell id="f9-IBuaHWKnpFaGda2p7-4" style="edgeStyle=orthogonalEdgeStyle;rounded=0;orthogonalLoop=1;jettySize=auto;html=1;exitX=0.5;exitY=1;exitDx=0;exitDy=0;entryX=0.5;entryY=0;entryDx=0;entryDy=0;" edge="1" parent="1" source="W-8qz53kXuM_b5DxB52O-1" target="W-8qz53kXuM_b5DxB52O-2">
          <mxGeometry relative="1" as="geometry" />
        </mxCell>
        <mxCell id="W-8qz53kXuM_b5DxB52O-1" value="Инициализация буфера результата" style="shape=process;whiteSpace=wrap;html=1;backgroundOutline=1;size=0.07692307692307693;fillColor=none;fontFamily=Times New Roman;fontSize=14;" vertex="1" parent="1">
          <mxGeometry x="250" y="30" width="140" height="70" as="geometry" />
        </mxCell>
        <mxCell id="f9-IBuaHWKnpFaGda2p7-5" style="edgeStyle=orthogonalEdgeStyle;rounded=0;orthogonalLoop=1;jettySize=auto;html=1;exitX=0.5;exitY=1;exitDx=0;exitDy=0;entryX=0.5;entryY=0;entryDx=0;entryDy=0;" edge="1" parent="1" source="W-8qz53kXuM_b5DxB52O-2" target="uz_0UwRIKCqLpDVF-xgp-1">
          <mxGeometry relative="1" as="geometry" />
        </mxCell>
        <mxCell id="W-8qz53kXuM_b5DxB52O-2" value="Подготовка буфера аргументов к расшифровке" style="shape=process;whiteSpace=wrap;html=1;backgroundOutline=1;size=0.07692307692307693;fillColor=none;fontFamily=Times New Roman;fontSize=14;" vertex="1" parent="1">
          <mxGeometry x="250" y="120" width="140" height="70" as="geometry" />
        </mxCell>
        <mxCell id="ECfyac5wpW73ZuQWnyiP-5" style="edgeStyle=orthogonalEdgeStyle;rounded=0;orthogonalLoop=1;jettySize=auto;html=1;exitX=0.5;exitY=1;exitDx=0;exitDy=0;entryX=0.5;entryY=0;entryDx=0;entryDy=0;" edge="1" parent="1" source="uz_0UwRIKCqLpDVF-xgp-1" target="ECfyac5wpW73ZuQWnyiP-1">
          <mxGeometry relative="1" as="geometry" />
        </mxCell>
        <mxCell id="uz_0UwRIKCqLpDVF-xgp-1" value="Получить id передачи из буфера аргументов" style="rounded=0;whiteSpace=wrap;html=1;fillColor=none;fontFamily=Times New Roman;fontSize=14;" vertex="1" parent="1">
          <mxGeometry x="250" y="210" width="140" height="70" as="geometry" />
        </mxCell>
        <mxCell id="ECfyac5wpW73ZuQWnyiP-20" style="edgeStyle=orthogonalEdgeStyle;rounded=0;orthogonalLoop=1;jettySize=auto;html=1;exitX=0.5;exitY=1;exitDx=0;exitDy=0;entryX=0.5;entryY=1;entryDx=0;entryDy=0;endArrow=none;endFill=0;" edge="1" parent="1" source="ECfyac5wpW73ZuQWnyiP-24" target="ECfyac5wpW73ZuQWnyiP-6">
          <mxGeometry relative="1" as="geometry">
            <mxPoint x="590" y="540" as="sourcePoint" />
          </mxGeometry>
        </mxCell>
        <mxCell id="f9-IBuaHWKnpFaGda2p7-10" value="void svc_send(struct svc_rqst *rqstp)" style="strokeWidth=1;html=1;shape=mxgraph.flowchart.annotation_1;align=left;pointerEvents=1;fontFamily=Times New Roman;fontSize=14;labelPosition=right;verticalLabelPosition=middle;verticalAlign=middle;" vertex="1" parent="1">
          <mxGeometry x="550" y="688" width="10" height="30" as="geometry" />
        </mxCell>
        <mxCell id="f9-IBuaHWKnpFaGda2p7-11" style="edgeStyle=orthogonalEdgeStyle;rounded=0;orthogonalLoop=1;jettySize=auto;html=1;exitX=1;exitY=0.75;exitDx=0;exitDy=0;entryX=0;entryY=0.5;entryDx=0;entryDy=0;entryPerimeter=0;endArrow=none;endFill=0;dashed=1;" edge="1" parent="1" target="f9-IBuaHWKnpFaGda2p7-10" source="ECfyac5wpW73ZuQWnyiP-8">
          <mxGeometry relative="1" as="geometry">
            <mxPoint x="560" y="685" as="sourcePoint" />
          </mxGeometry>
        </mxCell>
        <mxCell id="ECfyac5wpW73ZuQWnyiP-3" style="edgeStyle=orthogonalEdgeStyle;rounded=0;orthogonalLoop=1;jettySize=auto;html=1;exitX=1;exitY=0.5;exitDx=0;exitDy=0;entryX=0.5;entryY=0;entryDx=0;entryDy=0;" edge="1" parent="1" source="ECfyac5wpW73ZuQWnyiP-1" target="ECfyac5wpW73ZuQWnyiP-2">
          <mxGeometry relative="1" as="geometry" />
        </mxCell>
        <mxCell id="ECfyac5wpW73ZuQWnyiP-4" value="Да" style="edgeLabel;html=1;align=center;verticalAlign=middle;resizable=0;points=[];fontFamily=Times New Roman;" vertex="1" connectable="0" parent="ECfyac5wpW73ZuQWnyiP-3">
          <mxGeometry x="0.3381" relative="1" as="geometry">
            <mxPoint y="-15" as="offset" />
          </mxGeometry>
        </mxCell>
        <mxCell id="ECfyac5wpW73ZuQWnyiP-12" style="edgeStyle=orthogonalEdgeStyle;rounded=0;orthogonalLoop=1;jettySize=auto;html=1;exitX=0;exitY=0.5;exitDx=0;exitDy=0;entryX=0.5;entryY=0;entryDx=0;entryDy=0;" edge="1" parent="1" source="ECfyac5wpW73ZuQWnyiP-1" target="ECfyac5wpW73ZuQWnyiP-11">
          <mxGeometry relative="1" as="geometry" />
        </mxCell>
        <mxCell id="ECfyac5wpW73ZuQWnyiP-1" value="Получено успешно?" style="rhombus;whiteSpace=wrap;html=1;fillColor=none;fontFamily=Times New Roman;fontSize=14;" vertex="1" parent="1">
          <mxGeometry x="250" y="300" width="140" height="70" as="geometry" />
        </mxCell>
        <mxCell id="ECfyac5wpW73ZuQWnyiP-10" style="edgeStyle=orthogonalEdgeStyle;rounded=0;orthogonalLoop=1;jettySize=auto;html=1;exitX=0;exitY=0.5;exitDx=0;exitDy=0;entryX=0.5;entryY=0;entryDx=0;entryDy=0;" edge="1" parent="1" source="ECfyac5wpW73ZuQWnyiP-2" target="ECfyac5wpW73ZuQWnyiP-6">
          <mxGeometry relative="1" as="geometry" />
        </mxCell>
        <mxCell id="ECfyac5wpW73ZuQWnyiP-2" value="Статус&lt;div&gt;сообщения&lt;div&gt;==&lt;/div&gt;&lt;div&gt;CALL?&lt;/div&gt;&lt;/div&gt;" style="rhombus;whiteSpace=wrap;html=1;fillColor=none;fontFamily=Times New Roman;fontSize=12;" vertex="1" parent="1">
          <mxGeometry x="390" y="370" width="140" height="70" as="geometry" />
        </mxCell>
        <mxCell id="ECfyac5wpW73ZuQWnyiP-6" value="Ошибка" style="rounded=0;whiteSpace=wrap;html=1;fillColor=none;fontFamily=Times New Roman;fontSize=14;" vertex="1" parent="1">
          <mxGeometry x="250" y="450" width="140" height="70" as="geometry" />
        </mxCell>
        <mxCell id="ECfyac5wpW73ZuQWnyiP-14" style="edgeStyle=orthogonalEdgeStyle;rounded=0;orthogonalLoop=1;jettySize=auto;html=1;exitX=0;exitY=0.5;exitDx=0;exitDy=0;entryX=0.5;entryY=0;entryDx=0;entryDy=0;" edge="1" parent="1" source="ECfyac5wpW73ZuQWnyiP-7" target="ECfyac5wpW73ZuQWnyiP-9">
          <mxGeometry relative="1" as="geometry" />
        </mxCell>
        <mxCell id="ECfyac5wpW73ZuQWnyiP-16" value="Да" style="edgeLabel;html=1;align=center;verticalAlign=middle;resizable=0;points=[];fontFamily=Times New Roman;" vertex="1" connectable="0" parent="ECfyac5wpW73ZuQWnyiP-14">
          <mxGeometry x="-0.1222" y="1" relative="1" as="geometry">
            <mxPoint x="-24" y="-16" as="offset" />
          </mxGeometry>
        </mxCell>
        <mxCell id="ECfyac5wpW73ZuQWnyiP-15" style="edgeStyle=orthogonalEdgeStyle;rounded=0;orthogonalLoop=1;jettySize=auto;html=1;exitX=1;exitY=0.5;exitDx=0;exitDy=0;entryX=0.5;entryY=0;entryDx=0;entryDy=0;" edge="1" parent="1" source="ECfyac5wpW73ZuQWnyiP-7" target="ECfyac5wpW73ZuQWnyiP-8">
          <mxGeometry relative="1" as="geometry" />
        </mxCell>
        <mxCell id="ECfyac5wpW73ZuQWnyiP-22" style="edgeStyle=orthogonalEdgeStyle;rounded=0;orthogonalLoop=1;jettySize=auto;html=1;exitX=0.5;exitY=0;exitDx=0;exitDy=0;startArrow=classic;startFill=1;endArrow=none;endFill=0;" edge="1" parent="1" source="ECfyac5wpW73ZuQWnyiP-7">
          <mxGeometry relative="1" as="geometry">
            <mxPoint x="319.8571428571428" y="560" as="targetPoint" />
          </mxGeometry>
        </mxCell>
        <mxCell id="ECfyac5wpW73ZuQWnyiP-7" value="Произошла ошибка?" style="rhombus;whiteSpace=wrap;html=1;fillColor=none;fontFamily=Times New Roman;fontSize=14;" vertex="1" parent="1">
          <mxGeometry x="250" y="580" width="140" height="70" as="geometry" />
        </mxCell>
        <mxCell id="ECfyac5wpW73ZuQWnyiP-17" style="edgeStyle=orthogonalEdgeStyle;rounded=0;orthogonalLoop=1;jettySize=auto;html=1;exitX=0.5;exitY=1;exitDx=0;exitDy=0;entryX=0.5;entryY=1;entryDx=0;entryDy=0;endArrow=none;endFill=0;" edge="1" parent="1" source="ECfyac5wpW73ZuQWnyiP-8" target="ECfyac5wpW73ZuQWnyiP-9">
          <mxGeometry relative="1" as="geometry" />
        </mxCell>
        <mxCell id="ECfyac5wpW73ZuQWnyiP-27" style="edgeStyle=orthogonalEdgeStyle;rounded=0;orthogonalLoop=1;jettySize=auto;html=1;exitX=1;exitY=0.25;exitDx=0;exitDy=0;entryX=0;entryY=0.25;entryDx=0;entryDy=0;endArrow=none;endFill=0;dashed=1;" edge="1" parent="1" source="ECfyac5wpW73ZuQWnyiP-9" target="ECfyac5wpW73ZuQWnyiP-8">
          <mxGeometry relative="1" as="geometry" />
        </mxCell>
        <mxCell id="ECfyac5wpW73ZuQWnyiP-9" value="Отбросить запрос" style="shape=process;whiteSpace=wrap;html=1;backgroundOutline=1;size=0.07692307692307693;fillColor=none;fontFamily=Times New Roman;fontSize=14;" vertex="1" parent="1">
          <mxGeometry x="110" y="650" width="140" height="70" as="geometry" />
        </mxCell>
        <mxCell id="ECfyac5wpW73ZuQWnyiP-21" style="edgeStyle=orthogonalEdgeStyle;rounded=0;orthogonalLoop=1;jettySize=auto;html=1;exitX=0.5;exitY=1;exitDx=0;exitDy=0;endArrow=none;endFill=0;" edge="1" parent="1" source="ECfyac5wpW73ZuQWnyiP-11">
          <mxGeometry relative="1" as="geometry">
            <mxPoint x="460" y="540" as="targetPoint" />
            <Array as="points">
              <mxPoint x="180" y="560" />
              <mxPoint x="460" y="560" />
            </Array>
          </mxGeometry>
        </mxCell>
        <mxCell id="ECfyac5wpW73ZuQWnyiP-11" value="Ошибка" style="rounded=0;whiteSpace=wrap;html=1;fillColor=none;fontFamily=Times New Roman;fontSize=14;" vertex="1" parent="1">
          <mxGeometry x="110" y="370" width="140" height="70" as="geometry" />
        </mxCell>
        <mxCell id="ECfyac5wpW73ZuQWnyiP-18" style="edgeStyle=orthogonalEdgeStyle;rounded=0;orthogonalLoop=1;jettySize=auto;html=1;exitX=0.5;exitY=0;exitDx=0;exitDy=0;exitPerimeter=0;startArrow=classic;startFill=1;endArrow=none;endFill=0;" edge="1" parent="1" source="ECfyac5wpW73ZuQWnyiP-13">
          <mxGeometry relative="1" as="geometry">
            <mxPoint x="320.02439024390253" y="740" as="targetPoint" />
          </mxGeometry>
        </mxCell>
        <mxCell id="ECfyac5wpW73ZuQWnyiP-13" value="&lt;font&gt;Конец&lt;/font&gt;" style="strokeWidth=1;html=1;shape=mxgraph.flowchart.terminator;whiteSpace=wrap;fontFamily=Times New Roman;fontSize=14;fillColor=none;" vertex="1" parent="1">
          <mxGeometry x="250" y="760" width="140" height="70" as="geometry" />
        </mxCell>
        <mxCell id="ECfyac5wpW73ZuQWnyiP-19" style="edgeStyle=orthogonalEdgeStyle;rounded=0;orthogonalLoop=1;jettySize=auto;html=1;exitX=1;exitY=0.5;exitDx=0;exitDy=0;entryX=0.5;entryY=0;entryDx=0;entryDy=0;" edge="1" parent="1" source="ECfyac5wpW73ZuQWnyiP-2" target="ECfyac5wpW73ZuQWnyiP-24">
          <mxGeometry relative="1" as="geometry">
            <mxPoint x="590" y="440" as="targetPoint" />
          </mxGeometry>
        </mxCell>
        <mxCell id="ECfyac5wpW73ZuQWnyiP-23" value="Да" style="edgeLabel;html=1;align=center;verticalAlign=middle;resizable=0;points=[];fontFamily=Times New Roman;fontSize=11;" vertex="1" connectable="0" parent="ECfyac5wpW73ZuQWnyiP-19">
          <mxGeometry x="0.1782" y="1" relative="1" as="geometry">
            <mxPoint x="4" y="-14" as="offset" />
          </mxGeometry>
        </mxCell>
        <mxCell id="ECfyac5wpW73ZuQWnyiP-24" value="Обработка запроса" style="shape=process;whiteSpace=wrap;html=1;backgroundOutline=1;size=0.07692307692307693;fillColor=none;fontFamily=Times New Roman;fontSize=14;" vertex="1" parent="1">
          <mxGeometry x="530" y="450" width="140" height="70" as="geometry" />
        </mxCell>
        <mxCell id="ECfyac5wpW73ZuQWnyiP-28" style="edgeStyle=orthogonalEdgeStyle;rounded=0;orthogonalLoop=1;jettySize=auto;html=1;exitX=0;exitY=0.5;exitDx=0;exitDy=0;exitPerimeter=0;entryX=1;entryY=0.25;entryDx=0;entryDy=0;endArrow=none;endFill=0;dashed=1;" edge="1" parent="1" source="ECfyac5wpW73ZuQWnyiP-25" target="ECfyac5wpW73ZuQWnyiP-8">
          <mxGeometry relative="1" as="geometry" />
        </mxCell>
        <mxCell id="ECfyac5wpW73ZuQWnyiP-25" value="void svc_drop(struct svc_rqst *rqstp)" style="strokeWidth=1;html=1;shape=mxgraph.flowchart.annotation_1;align=left;pointerEvents=1;fontFamily=Times New Roman;fontSize=14;labelPosition=right;verticalLabelPosition=middle;verticalAlign=middle;" vertex="1" parent="1">
          <mxGeometry x="550" y="652" width="10" height="30" as="geometry" />
        </mxCell>
        <mxCell id="ECfyac5wpW73ZuQWnyiP-8" value="Отправить результат клиенту" style="shape=process;whiteSpace=wrap;html=1;backgroundOutline=1;size=0.07692307692307693;fillColor=none;fontFamily=Times New Roman;fontSize=14;" vertex="1" parent="1">
          <mxGeometry x="390" y="650" width="140" height="70" as="geometry" />
        </mxCell>
        <mxCell id="iGRNle9its00mOF3dHi1-1" style="edgeStyle=orthogonalEdgeStyle;rounded=0;orthogonalLoop=1;jettySize=auto;html=1;exitX=0.5;exitY=1;exitDx=0;exitDy=0;exitPerimeter=0;entryX=0.5;entryY=0;entryDx=0;entryDy=0;" edge="1" parent="1" source="ECfyac5wpW73ZuQWnyiP-29" target="ECfyac5wpW73ZuQWnyiP-34">
          <mxGeometry relative="1" as="geometry" />
        </mxCell>
        <mxCell id="ECfyac5wpW73ZuQWnyiP-29" value="&lt;font&gt;Начало&lt;/font&gt;" style="strokeWidth=1;html=1;shape=mxgraph.flowchart.terminator;whiteSpace=wrap;fontFamily=Times New Roman;fontSize=14;fillColor=none;" vertex="1" parent="1">
          <mxGeometry x="1220" y="-60" width="140" height="70" as="geometry" />
        </mxCell>
        <mxCell id="ECfyac5wpW73ZuQWnyiP-30" value="void svc_process_common(struct svc_rqst *rqstp)" style="strokeWidth=1;html=1;shape=mxgraph.flowchart.annotation_1;align=left;pointerEvents=1;fontFamily=Times New Roman;fontSize=14;labelPosition=right;verticalLabelPosition=middle;verticalAlign=middle;" vertex="1" parent="1">
          <mxGeometry x="1380" y="-40" width="10" height="30" as="geometry" />
        </mxCell>
        <mxCell id="ECfyac5wpW73ZuQWnyiP-31" style="edgeStyle=orthogonalEdgeStyle;rounded=0;orthogonalLoop=1;jettySize=auto;html=1;exitX=1;exitY=0.5;exitDx=0;exitDy=0;exitPerimeter=0;entryX=0;entryY=0.5;entryDx=0;entryDy=0;entryPerimeter=0;endArrow=none;endFill=0;dashed=1;" edge="1" parent="1" source="ECfyac5wpW73ZuQWnyiP-29" target="ECfyac5wpW73ZuQWnyiP-30">
          <mxGeometry relative="1" as="geometry" />
        </mxCell>
        <mxCell id="ECfyac5wpW73ZuQWnyiP-32" value="void svc_process_common(struct svc_rqst *rqstp)" style="strokeWidth=1;html=1;shape=mxgraph.flowchart.annotation_1;align=left;pointerEvents=1;fontFamily=Times New Roman;fontSize=14;labelPosition=right;verticalLabelPosition=middle;verticalAlign=middle;" vertex="1" parent="1">
          <mxGeometry x="690" y="470" width="10" height="30" as="geometry" />
        </mxCell>
        <mxCell id="ECfyac5wpW73ZuQWnyiP-33" style="edgeStyle=orthogonalEdgeStyle;rounded=0;orthogonalLoop=1;jettySize=auto;html=1;exitX=1;exitY=0.5;exitDx=0;exitDy=0;entryX=0;entryY=0.5;entryDx=0;entryDy=0;entryPerimeter=0;endArrow=none;endFill=0;dashed=1;" edge="1" parent="1" target="ECfyac5wpW73ZuQWnyiP-32" source="ECfyac5wpW73ZuQWnyiP-24">
          <mxGeometry relative="1" as="geometry">
            <mxPoint x="670" y="485" as="sourcePoint" />
          </mxGeometry>
        </mxCell>
        <mxCell id="iGRNle9its00mOF3dHi1-2" style="edgeStyle=orthogonalEdgeStyle;rounded=0;orthogonalLoop=1;jettySize=auto;html=1;exitX=0.5;exitY=1;exitDx=0;exitDy=0;entryX=0.5;entryY=0;entryDx=0;entryDy=0;" edge="1" parent="1" source="ECfyac5wpW73ZuQWnyiP-34" target="ECfyac5wpW73ZuQWnyiP-35">
          <mxGeometry relative="1" as="geometry" />
        </mxCell>
        <mxCell id="ECfyac5wpW73ZuQWnyiP-34" value="Подготовка буфера результата к кодированию" style="shape=process;whiteSpace=wrap;html=1;backgroundOutline=1;size=0.07692307692307693;fillColor=none;fontFamily=Times New Roman;fontSize=14;" vertex="1" parent="1">
          <mxGeometry x="1220" y="30" width="140" height="70" as="geometry" />
        </mxCell>
        <mxCell id="iGRNle9its00mOF3dHi1-3" style="edgeStyle=orthogonalEdgeStyle;rounded=0;orthogonalLoop=1;jettySize=auto;html=1;exitX=0.5;exitY=1;exitDx=0;exitDy=0;entryX=0.5;entryY=0;entryDx=0;entryDy=0;" edge="1" parent="1" source="ECfyac5wpW73ZuQWnyiP-35" target="ECfyac5wpW73ZuQWnyiP-36">
          <mxGeometry relative="1" as="geometry" />
        </mxCell>
        <mxCell id="ECfyac5wpW73ZuQWnyiP-35" value="Записать id передачи в буфер результата" style="rounded=0;whiteSpace=wrap;html=1;fillColor=none;fontFamily=Times New Roman;fontSize=14;" vertex="1" parent="1">
          <mxGeometry x="1220" y="120" width="140" height="70" as="geometry" />
        </mxCell>
        <mxCell id="iGRNle9its00mOF3dHi1-4" style="edgeStyle=orthogonalEdgeStyle;rounded=0;orthogonalLoop=1;jettySize=auto;html=1;exitX=0.5;exitY=1;exitDx=0;exitDy=0;entryX=0.5;entryY=0;entryDx=0;entryDy=0;" edge="1" parent="1" source="ECfyac5wpW73ZuQWnyiP-36" target="ECfyac5wpW73ZuQWnyiP-37">
          <mxGeometry relative="1" as="geometry" />
        </mxCell>
        <mxCell id="ECfyac5wpW73ZuQWnyiP-36" value="Записать статус сообщения REPLY" style="rounded=0;whiteSpace=wrap;html=1;fillColor=none;fontFamily=Times New Roman;fontSize=14;" vertex="1" parent="1">
          <mxGeometry x="1220" y="210" width="140" height="70" as="geometry" />
        </mxCell>
        <mxCell id="iGRNle9its00mOF3dHi1-5" style="edgeStyle=orthogonalEdgeStyle;rounded=0;orthogonalLoop=1;jettySize=auto;html=1;exitX=0.5;exitY=1;exitDx=0;exitDy=0;entryX=0.5;entryY=0;entryDx=0;entryDy=0;" edge="1" parent="1" source="ECfyac5wpW73ZuQWnyiP-37" target="ECfyac5wpW73ZuQWnyiP-39">
          <mxGeometry relative="1" as="geometry" />
        </mxCell>
        <mxCell id="ECfyac5wpW73ZuQWnyiP-37" value="Получить версию протокола RPC" style="rounded=0;whiteSpace=wrap;html=1;fillColor=none;fontFamily=Times New Roman;fontSize=14;" vertex="1" parent="1">
          <mxGeometry x="1220" y="300" width="140" height="70" as="geometry" />
        </mxCell>
        <mxCell id="iGRNle9its00mOF3dHi1-12" style="edgeStyle=orthogonalEdgeStyle;rounded=0;orthogonalLoop=1;jettySize=auto;html=1;exitX=0.5;exitY=1;exitDx=0;exitDy=0;entryX=0.5;entryY=0;entryDx=0;entryDy=0;" edge="1" parent="1" source="ECfyac5wpW73ZuQWnyiP-38" target="ECfyac5wpW73ZuQWnyiP-40">
          <mxGeometry relative="1" as="geometry" />
        </mxCell>
        <mxCell id="ECfyac5wpW73ZuQWnyiP-38" value="Записать статус ответа MSG_ACCEPTED" style="rounded=0;whiteSpace=wrap;html=1;fillColor=none;fontFamily=Times New Roman;fontSize=14;" vertex="1" parent="1">
          <mxGeometry x="1360" y="460" width="140" height="70" as="geometry" />
        </mxCell>
        <mxCell id="iGRNle9its00mOF3dHi1-6" style="edgeStyle=orthogonalEdgeStyle;rounded=0;orthogonalLoop=1;jettySize=auto;html=1;exitX=1;exitY=0.5;exitDx=0;exitDy=0;entryX=0.5;entryY=0;entryDx=0;entryDy=0;" edge="1" parent="1" source="ECfyac5wpW73ZuQWnyiP-39" target="ECfyac5wpW73ZuQWnyiP-38">
          <mxGeometry relative="1" as="geometry" />
        </mxCell>
        <mxCell id="iGRNle9its00mOF3dHi1-7" value="Да" style="edgeLabel;html=1;align=center;verticalAlign=middle;resizable=0;points=[];" vertex="1" connectable="0" parent="iGRNle9its00mOF3dHi1-6">
          <mxGeometry x="0.3856" y="1" relative="1" as="geometry">
            <mxPoint x="-1" y="-18" as="offset" />
          </mxGeometry>
        </mxCell>
        <mxCell id="iGRNle9its00mOF3dHi1-8" style="edgeStyle=orthogonalEdgeStyle;rounded=0;orthogonalLoop=1;jettySize=auto;html=1;exitX=0;exitY=0.5;exitDx=0;exitDy=0;entryX=0.5;entryY=0;entryDx=0;entryDy=0;" edge="1" parent="1" source="ECfyac5wpW73ZuQWnyiP-39" target="ECfyac5wpW73ZuQWnyiP-41">
          <mxGeometry relative="1" as="geometry" />
        </mxCell>
        <mxCell id="ECfyac5wpW73ZuQWnyiP-39" value="&lt;font&gt;Версия&lt;/font&gt;&lt;div&gt;&lt;font&gt;совпадает с&lt;/font&gt;&lt;/div&gt;&lt;div&gt;&lt;font&gt;реализацией?&lt;/font&gt;&lt;/div&gt;" style="rhombus;whiteSpace=wrap;html=1;fillColor=none;fontFamily=Times New Roman;fontSize=12;" vertex="1" parent="1">
          <mxGeometry x="1220" y="390" width="140" height="70" as="geometry" />
        </mxCell>
        <mxCell id="iGRNle9its00mOF3dHi1-13" style="edgeStyle=orthogonalEdgeStyle;rounded=0;orthogonalLoop=1;jettySize=auto;html=1;exitX=0.5;exitY=1;exitDx=0;exitDy=0;entryX=0.5;entryY=0;entryDx=0;entryDy=0;" edge="1" parent="1" source="ECfyac5wpW73ZuQWnyiP-40" target="ECfyac5wpW73ZuQWnyiP-43">
          <mxGeometry relative="1" as="geometry" />
        </mxCell>
        <mxCell id="ECfyac5wpW73ZuQWnyiP-40" value="Получить номер программы, версии и процедуры" style="rounded=0;whiteSpace=wrap;html=1;fillColor=none;fontFamily=Times New Roman;fontSize=14;" vertex="1" parent="1">
          <mxGeometry x="1360" y="550" width="140" height="70" as="geometry" />
        </mxCell>
        <mxCell id="iGRNle9its00mOF3dHi1-9" style="edgeStyle=orthogonalEdgeStyle;rounded=0;orthogonalLoop=1;jettySize=auto;html=1;exitX=0.5;exitY=1;exitDx=0;exitDy=0;entryX=0.5;entryY=0;entryDx=0;entryDy=0;" edge="1" parent="1" source="ECfyac5wpW73ZuQWnyiP-41" target="ECfyac5wpW73ZuQWnyiP-42">
          <mxGeometry relative="1" as="geometry" />
        </mxCell>
        <mxCell id="ECfyac5wpW73ZuQWnyiP-41" value="Записать статус ответа MSG_DENIED" style="rounded=0;whiteSpace=wrap;html=1;fillColor=none;fontFamily=Times New Roman;fontSize=14;" vertex="1" parent="1">
          <mxGeometry x="1080" y="460" width="140" height="70" as="geometry" />
        </mxCell>
        <mxCell id="ECfyac5wpW73ZuQWnyiP-42" value="Записать статус отказа RPC_MISMATCH" style="rounded=0;whiteSpace=wrap;html=1;fillColor=none;fontFamily=Times New Roman;fontSize=14;" vertex="1" parent="1">
          <mxGeometry x="1080" y="550" width="140" height="70" as="geometry" />
        </mxCell>
        <mxCell id="ECfyac5wpW73ZuQWnyiP-43" value="Получить структуру программы" style="rounded=0;whiteSpace=wrap;html=1;fillColor=none;fontFamily=Times New Roman;fontSize=14;" vertex="1" parent="1">
          <mxGeometry x="1360" y="640" width="140" height="70" as="geometry" />
        </mxCell>
        <mxCell id="iGRNle9its00mOF3dHi1-15" style="edgeStyle=orthogonalEdgeStyle;rounded=0;orthogonalLoop=1;jettySize=auto;html=1;exitX=0.5;exitY=0;exitDx=0;exitDy=0;endArrow=none;endFill=0;" edge="1" parent="1" source="ECfyac5wpW73ZuQWnyiP-45">
          <mxGeometry relative="1" as="geometry">
            <mxPoint x="1289.7777777777778" y="790" as="targetPoint" />
          </mxGeometry>
        </mxCell>
        <mxCell id="ECfyac5wpW73ZuQWnyiP-45" value="Финализация аутентификации" style="shape=process;whiteSpace=wrap;html=1;backgroundOutline=1;size=0.07692307692307693;fillColor=none;fontFamily=Times New Roman;fontSize=14;" vertex="1" parent="1">
          <mxGeometry x="1220" y="810" width="140" height="70" as="geometry" />
        </mxCell>
        <mxCell id="ECfyac5wpW73ZuQWnyiP-46" value="&lt;font&gt;Конец&lt;/font&gt;" style="strokeWidth=1;html=1;shape=mxgraph.flowchart.terminator;whiteSpace=wrap;fontFamily=Times New Roman;fontSize=14;fillColor=none;" vertex="1" parent="1">
          <mxGeometry x="1220" y="900" width="140" height="70" as="geometry" />
        </mxCell>
        <mxCell id="Qn1b1J6w7lD2vqLyrMzB-1" value="А1" style="verticalLabelPosition=middle;verticalAlign=middle;html=1;shape=mxgraph.flowchart.on-page_reference;fillColor=none;labelPosition=center;align=center;fontFamily=Times New Roman;" vertex="1" parent="1">
          <mxGeometry x="1380" y="730" width="40" height="40" as="geometry" />
        </mxCell>
        <mxCell id="iGRNle9its00mOF3dHi1-10" style="edgeStyle=orthogonalEdgeStyle;rounded=0;orthogonalLoop=1;jettySize=auto;html=1;exitX=0.5;exitY=1;exitDx=0;exitDy=0;exitPerimeter=0;entryX=0.5;entryY=1;entryDx=0;entryDy=0;endArrow=none;endFill=0;" edge="1" parent="1" source="Qn1b1J6w7lD2vqLyrMzB-2" target="ECfyac5wpW73ZuQWnyiP-42">
          <mxGeometry relative="1" as="geometry" />
        </mxCell>
        <mxCell id="Qn1b1J6w7lD2vqLyrMzB-2" value="А2" style="verticalLabelPosition=middle;verticalAlign=middle;html=1;shape=mxgraph.flowchart.on-page_reference;fillColor=none;labelPosition=center;align=center;fontFamily=Times New Roman;" vertex="1" parent="1">
          <mxGeometry x="1440" y="730" width="40" height="40" as="geometry" />
        </mxCell>
        <mxCell id="iGRNle9its00mOF3dHi1-11" style="edgeStyle=orthogonalEdgeStyle;rounded=0;orthogonalLoop=1;jettySize=auto;html=1;exitX=0.5;exitY=1;exitDx=0;exitDy=0;entryX=0.5;entryY=0;entryDx=0;entryDy=0;entryPerimeter=0;" edge="1" parent="1" source="ECfyac5wpW73ZuQWnyiP-43" target="Qn1b1J6w7lD2vqLyrMzB-1">
          <mxGeometry relative="1" as="geometry">
            <Array as="points">
              <mxPoint x="1430" y="720" />
              <mxPoint x="1400" y="720" />
            </Array>
          </mxGeometry>
        </mxCell>
        <mxCell id="iGRNle9its00mOF3dHi1-14" style="edgeStyle=orthogonalEdgeStyle;rounded=0;orthogonalLoop=1;jettySize=auto;html=1;exitX=0.5;exitY=1;exitDx=0;exitDy=0;entryX=0.5;entryY=0;entryDx=0;entryDy=0;entryPerimeter=0;" edge="1" parent="1" source="ECfyac5wpW73ZuQWnyiP-45" target="ECfyac5wpW73ZuQWnyiP-46">
          <mxGeometry relative="1" as="geometry" />
        </mxCell>
        <mxCell id="iGRNle9its00mOF3dHi1-16" value="void svc_authorise(struct svc_rqst *rqstp)" style="strokeWidth=1;html=1;shape=mxgraph.flowchart.annotation_1;align=left;pointerEvents=1;fontFamily=Times New Roman;fontSize=14;labelPosition=right;verticalLabelPosition=middle;verticalAlign=middle;" vertex="1" parent="1">
          <mxGeometry x="1380" y="830" width="10" height="30" as="geometry" />
        </mxCell>
        <mxCell id="iGRNle9its00mOF3dHi1-17" style="edgeStyle=orthogonalEdgeStyle;rounded=0;orthogonalLoop=1;jettySize=auto;html=1;exitX=1;exitY=0.5;exitDx=0;exitDy=0;exitPerimeter=0;entryX=0;entryY=0.5;entryDx=0;entryDy=0;entryPerimeter=0;endArrow=none;endFill=0;dashed=1;" edge="1" parent="1" target="iGRNle9its00mOF3dHi1-16">
          <mxGeometry relative="1" as="geometry">
            <mxPoint x="1360" y="845" as="sourcePoint" />
          </mxGeometry>
        </mxCell>
        <mxCell id="iGRNle9its00mOF3dHi1-28" style="edgeStyle=orthogonalEdgeStyle;rounded=0;orthogonalLoop=1;jettySize=auto;html=1;exitX=0.5;exitY=1;exitDx=0;exitDy=0;exitPerimeter=0;entryX=0.5;entryY=0;entryDx=0;entryDy=0;" edge="1" parent="1" source="iGRNle9its00mOF3dHi1-18" target="iGRNle9its00mOF3dHi1-20">
          <mxGeometry relative="1" as="geometry" />
        </mxCell>
        <mxCell id="iGRNle9its00mOF3dHi1-18" value="А1" style="verticalLabelPosition=middle;verticalAlign=middle;html=1;shape=mxgraph.flowchart.on-page_reference;fillColor=none;labelPosition=center;align=center;fontFamily=Times New Roman;" vertex="1" parent="1">
          <mxGeometry x="1680" width="40" height="40" as="geometry" />
        </mxCell>
        <mxCell id="iGRNle9its00mOF3dHi1-29" style="edgeStyle=orthogonalEdgeStyle;rounded=0;orthogonalLoop=1;jettySize=auto;html=1;exitX=0.5;exitY=1;exitDx=0;exitDy=0;entryX=0.5;entryY=0;entryDx=0;entryDy=0;" edge="1" parent="1" source="iGRNle9its00mOF3dHi1-20" target="iGRNle9its00mOF3dHi1-23">
          <mxGeometry relative="1" as="geometry" />
        </mxCell>
        <mxCell id="iGRNle9its00mOF3dHi1-20" value="Выполнить аутентификацию, согласно закодированной версии" style="shape=process;whiteSpace=wrap;html=1;backgroundOutline=1;size=0.07692307692307693;fillColor=none;fontFamily=Times New Roman;fontSize=12;" vertex="1" parent="1">
          <mxGeometry x="1630" y="60" width="140" height="70" as="geometry" />
        </mxCell>
        <mxCell id="iGRNle9its00mOF3dHi1-21" value="enum svc_auth_status svc_authenticate(struct svc_rqst *rqstp)" style="strokeWidth=1;html=1;shape=mxgraph.flowchart.annotation_1;align=left;pointerEvents=1;fontFamily=Times New Roman;fontSize=14;labelPosition=right;verticalLabelPosition=middle;verticalAlign=middle;" vertex="1" parent="1">
          <mxGeometry x="1790" y="80" width="10" height="30" as="geometry" />
        </mxCell>
        <mxCell id="iGRNle9its00mOF3dHi1-22" style="edgeStyle=orthogonalEdgeStyle;rounded=0;orthogonalLoop=1;jettySize=auto;html=1;exitX=1;exitY=0.5;exitDx=0;exitDy=0;entryX=0;entryY=0.5;entryDx=0;entryDy=0;entryPerimeter=0;endArrow=none;endFill=0;dashed=1;" edge="1" parent="1" target="iGRNle9its00mOF3dHi1-21" source="iGRNle9its00mOF3dHi1-20">
          <mxGeometry relative="1" as="geometry">
            <mxPoint x="1770" y="95" as="sourcePoint" />
          </mxGeometry>
        </mxCell>
        <mxCell id="iGRNle9its00mOF3dHi1-30" style="edgeStyle=orthogonalEdgeStyle;rounded=0;orthogonalLoop=1;jettySize=auto;html=1;exitX=1;exitY=0.5;exitDx=0;exitDy=0;entryX=0.5;entryY=0;entryDx=0;entryDy=0;" edge="1" parent="1" source="iGRNle9its00mOF3dHi1-23" target="iGRNle9its00mOF3dHi1-24">
          <mxGeometry relative="1" as="geometry" />
        </mxCell>
        <mxCell id="iGRNle9its00mOF3dHi1-31" value="Да" style="edgeLabel;html=1;align=center;verticalAlign=middle;resizable=0;points=[];fontFamily=Times New Roman;" vertex="1" connectable="0" parent="iGRNle9its00mOF3dHi1-30">
          <mxGeometry x="0.2933" y="-2" relative="1" as="geometry">
            <mxPoint x="2" y="-20" as="offset" />
          </mxGeometry>
        </mxCell>
        <mxCell id="iGRNle9its00mOF3dHi1-23" value="Аутентификация успешна?" style="rhombus;whiteSpace=wrap;html=1;fillColor=none;fontFamily=Times New Roman;fontSize=12;" vertex="1" parent="1">
          <mxGeometry x="1630" y="150" width="140" height="70" as="geometry" />
        </mxCell>
        <mxCell id="iGRNle9its00mOF3dHi1-32" style="edgeStyle=orthogonalEdgeStyle;rounded=0;orthogonalLoop=1;jettySize=auto;html=1;exitX=0.5;exitY=1;exitDx=0;exitDy=0;entryX=0;entryY=0.5;entryDx=0;entryDy=0;endArrow=none;endFill=0;" edge="1" parent="1" source="iGRNle9its00mOF3dHi1-24" target="iGRNle9its00mOF3dHi1-23">
          <mxGeometry relative="1" as="geometry" />
        </mxCell>
        <mxCell id="iGRNle9its00mOF3dHi1-24" value="Вызвать функцию пользовательской аутентификации" style="rounded=0;whiteSpace=wrap;html=1;fillColor=none;fontFamily=Times New Roman;fontSize=14;" vertex="1" parent="1">
          <mxGeometry x="1770" y="230" width="140" height="70" as="geometry" />
        </mxCell>
        <mxCell id="iGRNle9its00mOF3dHi1-25" value="(struct svc_program).pg_authenticate" style="strokeWidth=1;html=1;shape=mxgraph.flowchart.annotation_1;align=left;pointerEvents=1;fontFamily=Times New Roman;fontSize=14;labelPosition=right;verticalLabelPosition=middle;verticalAlign=middle;" vertex="1" parent="1">
          <mxGeometry x="1930" y="250" width="10" height="30" as="geometry" />
        </mxCell>
        <mxCell id="iGRNle9its00mOF3dHi1-26" style="edgeStyle=orthogonalEdgeStyle;rounded=0;orthogonalLoop=1;jettySize=auto;html=1;exitX=1;exitY=0.5;exitDx=0;exitDy=0;entryX=0;entryY=0.5;entryDx=0;entryDy=0;entryPerimeter=0;endArrow=none;endFill=0;dashed=1;" edge="1" parent="1" target="iGRNle9its00mOF3dHi1-25" source="iGRNle9its00mOF3dHi1-24">
          <mxGeometry relative="1" as="geometry">
            <mxPoint x="1910" y="265" as="sourcePoint" />
          </mxGeometry>
        </mxCell>
        <mxCell id="iGRNle9its00mOF3dHi1-33" style="edgeStyle=orthogonalEdgeStyle;rounded=0;orthogonalLoop=1;jettySize=auto;html=1;exitX=0.5;exitY=0;exitDx=0;exitDy=0;startArrow=classic;startFill=1;endArrow=none;endFill=0;" edge="1" parent="1" source="iGRNle9its00mOF3dHi1-27">
          <mxGeometry relative="1" as="geometry">
            <mxPoint x="1700.181818181818" y="320" as="targetPoint" />
          </mxGeometry>
        </mxCell>
        <mxCell id="iGRNle9its00mOF3dHi1-52" style="edgeStyle=orthogonalEdgeStyle;rounded=0;orthogonalLoop=1;jettySize=auto;html=1;exitX=1;exitY=0.5;exitDx=0;exitDy=0;entryX=0.5;entryY=0;entryDx=0;entryDy=0;" edge="1" parent="1" source="iGRNle9its00mOF3dHi1-27" target="iGRNle9its00mOF3dHi1-40">
          <mxGeometry relative="1" as="geometry" />
        </mxCell>
        <mxCell id="iGRNle9its00mOF3dHi1-27" value="Аутентификация успешна?" style="rhombus;whiteSpace=wrap;html=1;fillColor=none;fontFamily=Times New Roman;fontSize=12;" vertex="1" parent="1">
          <mxGeometry x="1630" y="340" width="140" height="70" as="geometry" />
        </mxCell>
        <mxCell id="iGRNle9its00mOF3dHi1-34" value="А3" style="verticalLabelPosition=middle;verticalAlign=middle;html=1;shape=mxgraph.flowchart.on-page_reference;fillColor=none;labelPosition=center;align=center;fontFamily=Times New Roman;" vertex="1" parent="1">
          <mxGeometry x="1550" y="410" width="40" height="40" as="geometry" />
        </mxCell>
        <mxCell id="iGRNle9its00mOF3dHi1-54" style="edgeStyle=orthogonalEdgeStyle;rounded=0;orthogonalLoop=1;jettySize=auto;html=1;exitX=0.5;exitY=1;exitDx=0;exitDy=0;exitPerimeter=0;endArrow=none;endFill=0;" edge="1" parent="1" source="iGRNle9its00mOF3dHi1-35">
          <mxGeometry relative="1" as="geometry">
            <mxPoint x="1840" y="749.9999999999998" as="targetPoint" />
            <Array as="points">
              <mxPoint x="1570" y="770" />
              <mxPoint x="1840" y="770" />
            </Array>
          </mxGeometry>
        </mxCell>
        <mxCell id="iGRNle9its00mOF3dHi1-35" value="А4" style="verticalLabelPosition=middle;verticalAlign=middle;html=1;shape=mxgraph.flowchart.on-page_reference;fillColor=none;labelPosition=center;align=center;fontFamily=Times New Roman;" vertex="1" parent="1">
          <mxGeometry x="1550" y="470" width="40" height="40" as="geometry" />
        </mxCell>
        <mxCell id="iGRNle9its00mOF3dHi1-46" style="edgeStyle=orthogonalEdgeStyle;rounded=0;orthogonalLoop=1;jettySize=auto;html=1;exitX=1;exitY=0.5;exitDx=0;exitDy=0;entryX=0.5;entryY=0;entryDx=0;entryDy=0;" edge="1" parent="1" source="iGRNle9its00mOF3dHi1-40" target="iGRNle9its00mOF3dHi1-42">
          <mxGeometry relative="1" as="geometry" />
        </mxCell>
        <mxCell id="iGRNle9its00mOF3dHi1-58" value="Да" style="edgeLabel;html=1;align=center;verticalAlign=middle;resizable=0;points=[];" vertex="1" connectable="0" parent="iGRNle9its00mOF3dHi1-46">
          <mxGeometry x="0.219" y="3" relative="1" as="geometry">
            <mxPoint x="6" y="-12" as="offset" />
          </mxGeometry>
        </mxCell>
        <mxCell id="iGRNle9its00mOF3dHi1-50" style="edgeStyle=orthogonalEdgeStyle;rounded=0;orthogonalLoop=1;jettySize=auto;html=1;exitX=0;exitY=0.5;exitDx=0;exitDy=0;entryX=0.5;entryY=0;entryDx=0;entryDy=0;" edge="1" parent="1" source="iGRNle9its00mOF3dHi1-40" target="iGRNle9its00mOF3dHi1-49">
          <mxGeometry relative="1" as="geometry" />
        </mxCell>
        <mxCell id="iGRNle9its00mOF3dHi1-40" value="Отказано в доступе?" style="rhombus;whiteSpace=wrap;html=1;fillColor=none;fontFamily=Times New Roman;fontSize=12;" vertex="1" parent="1">
          <mxGeometry x="1770" y="410" width="140" height="70" as="geometry" />
        </mxCell>
        <mxCell id="iGRNle9its00mOF3dHi1-41" style="edgeStyle=orthogonalEdgeStyle;rounded=0;orthogonalLoop=1;jettySize=auto;html=1;exitX=0.5;exitY=1;exitDx=0;exitDy=0;entryX=0.5;entryY=0;entryDx=0;entryDy=0;" edge="1" parent="1" source="iGRNle9its00mOF3dHi1-42" target="iGRNle9its00mOF3dHi1-43">
          <mxGeometry relative="1" as="geometry" />
        </mxCell>
        <mxCell id="iGRNle9its00mOF3dHi1-42" value="Записать статус ответа MSG_DENIED" style="rounded=0;whiteSpace=wrap;html=1;fillColor=none;fontFamily=Times New Roman;fontSize=14;" vertex="1" parent="1">
          <mxGeometry x="1910" y="480" width="140" height="70" as="geometry" />
        </mxCell>
        <mxCell id="iGRNle9its00mOF3dHi1-45" style="edgeStyle=orthogonalEdgeStyle;rounded=0;orthogonalLoop=1;jettySize=auto;html=1;exitX=0.5;exitY=1;exitDx=0;exitDy=0;entryX=0.5;entryY=0;entryDx=0;entryDy=0;" edge="1" parent="1" source="iGRNle9its00mOF3dHi1-43" target="iGRNle9its00mOF3dHi1-44">
          <mxGeometry relative="1" as="geometry" />
        </mxCell>
        <mxCell id="iGRNle9its00mOF3dHi1-43" value="Записать статус отказа AUTH_ERROR" style="rounded=0;whiteSpace=wrap;html=1;fillColor=none;fontFamily=Times New Roman;fontSize=14;" vertex="1" parent="1">
          <mxGeometry x="1910" y="570" width="140" height="70" as="geometry" />
        </mxCell>
        <mxCell id="iGRNle9its00mOF3dHi1-51" style="edgeStyle=orthogonalEdgeStyle;rounded=0;orthogonalLoop=1;jettySize=auto;html=1;exitX=0.5;exitY=1;exitDx=0;exitDy=0;entryX=0.5;entryY=1;entryDx=0;entryDy=0;endArrow=none;endFill=0;" edge="1" parent="1" source="iGRNle9its00mOF3dHi1-44" target="iGRNle9its00mOF3dHi1-49">
          <mxGeometry relative="1" as="geometry" />
        </mxCell>
        <mxCell id="iGRNle9its00mOF3dHi1-44" value="Записать ошибку аутентификации" style="rounded=0;whiteSpace=wrap;html=1;fillColor=none;fontFamily=Times New Roman;fontSize=14;" vertex="1" parent="1">
          <mxGeometry x="1910" y="660" width="140" height="70" as="geometry" />
        </mxCell>
        <mxCell id="iGRNle9its00mOF3dHi1-49" value="Установить соответствующий статус операции" style="shape=process;whiteSpace=wrap;html=1;backgroundOutline=1;size=0.07692307692307693;fillColor=none;fontFamily=Times New Roman;fontSize=14;" vertex="1" parent="1">
          <mxGeometry x="1630" y="480" width="140" height="70" as="geometry" />
        </mxCell>
        <mxCell id="iGRNle9its00mOF3dHi1-53" style="edgeStyle=orthogonalEdgeStyle;rounded=0;orthogonalLoop=1;jettySize=auto;html=1;exitX=0;exitY=0.5;exitDx=0;exitDy=0;entryX=0.5;entryY=0;entryDx=0;entryDy=0;entryPerimeter=0;" edge="1" parent="1" source="iGRNle9its00mOF3dHi1-27" target="iGRNle9its00mOF3dHi1-34">
          <mxGeometry relative="1" as="geometry" />
        </mxCell>
        <mxCell id="iGRNle9its00mOF3dHi1-57" value="Да" style="edgeLabel;html=1;align=center;verticalAlign=middle;resizable=0;points=[];fontFamily=Times New Roman;" vertex="1" connectable="0" parent="iGRNle9its00mOF3dHi1-53">
          <mxGeometry x="-0.0596" relative="1" as="geometry">
            <mxPoint x="-15" y="-15" as="offset" />
          </mxGeometry>
        </mxCell>
        <mxCell id="iGRNle9its00mOF3dHi1-56" style="edgeStyle=orthogonalEdgeStyle;rounded=0;orthogonalLoop=1;jettySize=auto;html=1;exitX=0.5;exitY=0;exitDx=0;exitDy=0;exitPerimeter=0;startArrow=classic;startFill=1;endArrow=none;endFill=0;" edge="1" parent="1" source="iGRNle9its00mOF3dHi1-55">
          <mxGeometry relative="1" as="geometry">
            <mxPoint x="1700" y="770" as="targetPoint" />
          </mxGeometry>
        </mxCell>
        <mxCell id="iGRNle9its00mOF3dHi1-55" value="А2" style="verticalLabelPosition=middle;verticalAlign=middle;html=1;shape=mxgraph.flowchart.on-page_reference;fillColor=none;labelPosition=center;align=center;fontFamily=Times New Roman;" vertex="1" parent="1">
          <mxGeometry x="1680" y="790" width="40" height="40" as="geometry" />
        </mxCell>
        <mxCell id="iGRNle9its00mOF3dHi1-64" style="edgeStyle=orthogonalEdgeStyle;rounded=0;orthogonalLoop=1;jettySize=auto;html=1;exitX=0.5;exitY=1;exitDx=0;exitDy=0;exitPerimeter=0;entryX=0.5;entryY=0;entryDx=0;entryDy=0;" edge="1" parent="1" source="iGRNle9its00mOF3dHi1-59" target="iGRNle9its00mOF3dHi1-61">
          <mxGeometry relative="1" as="geometry" />
        </mxCell>
        <mxCell id="iGRNle9its00mOF3dHi1-59" value="А3" style="verticalLabelPosition=middle;verticalAlign=middle;html=1;shape=mxgraph.flowchart.on-page_reference;fillColor=none;labelPosition=center;align=center;fontFamily=Times New Roman;" vertex="1" parent="1">
          <mxGeometry x="2380" width="40" height="40" as="geometry" />
        </mxCell>
        <mxCell id="iGRNle9its00mOF3dHi1-66" style="edgeStyle=orthogonalEdgeStyle;rounded=0;orthogonalLoop=1;jettySize=auto;html=1;exitX=0.5;exitY=1;exitDx=0;exitDy=0;entryX=0.5;entryY=0;entryDx=0;entryDy=0;" edge="1" parent="1" source="iGRNle9its00mOF3dHi1-61" target="iGRNle9its00mOF3dHi1-65">
          <mxGeometry relative="1" as="geometry" />
        </mxCell>
        <mxCell id="iGRNle9its00mOF3dHi1-61" value="Инициализация запроса информацией о программе" style="rounded=0;whiteSpace=wrap;html=1;fillColor=none;fontFamily=Times New Roman;fontSize=14;" vertex="1" parent="1">
          <mxGeometry x="2330" y="60" width="140" height="70" as="geometry" />
        </mxCell>
        <mxCell id="iGRNle9its00mOF3dHi1-62" value="(struct svc_program).pg_init_request" style="strokeWidth=1;html=1;shape=mxgraph.flowchart.annotation_1;align=left;pointerEvents=1;fontFamily=Times New Roman;fontSize=14;labelPosition=right;verticalLabelPosition=middle;verticalAlign=middle;" vertex="1" parent="1">
          <mxGeometry x="2490" y="80" width="10" height="30" as="geometry" />
        </mxCell>
        <mxCell id="iGRNle9its00mOF3dHi1-63" style="edgeStyle=orthogonalEdgeStyle;rounded=0;orthogonalLoop=1;jettySize=auto;html=1;exitX=1;exitY=0.5;exitDx=0;exitDy=0;entryX=0;entryY=0.5;entryDx=0;entryDy=0;entryPerimeter=0;endArrow=none;endFill=0;dashed=1;" edge="1" parent="1" source="iGRNle9its00mOF3dHi1-61" target="iGRNle9its00mOF3dHi1-62">
          <mxGeometry relative="1" as="geometry">
            <mxPoint x="2470" y="95" as="sourcePoint" />
          </mxGeometry>
        </mxCell>
        <mxCell id="iGRNle9its00mOF3dHi1-68" style="edgeStyle=orthogonalEdgeStyle;rounded=0;orthogonalLoop=1;jettySize=auto;html=1;exitX=0;exitY=0.5;exitDx=0;exitDy=0;entryX=0.5;entryY=0;entryDx=0;entryDy=0;" edge="1" parent="1" source="iGRNle9its00mOF3dHi1-65" target="iGRNle9its00mOF3dHi1-67">
          <mxGeometry relative="1" as="geometry" />
        </mxCell>
        <mxCell id="iGRNle9its00mOF3dHi1-69" value="Да" style="edgeLabel;html=1;align=center;verticalAlign=middle;resizable=0;points=[];fontFamily=Times New Roman;" vertex="1" connectable="0" parent="iGRNle9its00mOF3dHi1-68">
          <mxGeometry x="0.0358" y="-2" relative="1" as="geometry">
            <mxPoint x="-16" y="-13" as="offset" />
          </mxGeometry>
        </mxCell>
        <mxCell id="iGRNle9its00mOF3dHi1-75" style="edgeStyle=orthogonalEdgeStyle;rounded=0;orthogonalLoop=1;jettySize=auto;html=1;exitX=1;exitY=0.5;exitDx=0;exitDy=0;entryX=0.5;entryY=0;entryDx=0;entryDy=0;" edge="1" parent="1" source="iGRNle9its00mOF3dHi1-65" target="iGRNle9its00mOF3dHi1-70">
          <mxGeometry relative="1" as="geometry" />
        </mxCell>
        <mxCell id="iGRNle9its00mOF3dHi1-65" value="Ошибка&lt;div&gt;инициализации?&lt;/div&gt;" style="rhombus;whiteSpace=wrap;html=1;fillColor=none;fontFamily=Times New Roman;fontSize=12;" vertex="1" parent="1">
          <mxGeometry x="2330" y="150" width="140" height="70" as="geometry" />
        </mxCell>
        <mxCell id="iGRNle9its00mOF3dHi1-88" style="edgeStyle=orthogonalEdgeStyle;rounded=0;orthogonalLoop=1;jettySize=auto;html=1;exitX=0.5;exitY=1;exitDx=0;exitDy=0;endArrow=none;endFill=0;" edge="1" parent="1" source="iGRNle9its00mOF3dHi1-67">
          <mxGeometry relative="1" as="geometry">
            <mxPoint x="2540" y="730" as="targetPoint" />
            <Array as="points">
              <mxPoint x="2260" y="750" />
              <mxPoint x="2540" y="750" />
            </Array>
          </mxGeometry>
        </mxCell>
        <mxCell id="iGRNle9its00mOF3dHi1-67" value="Установить соответствующий статус операции" style="shape=process;whiteSpace=wrap;html=1;backgroundOutline=1;size=0.07692307692307693;fillColor=none;fontFamily=Times New Roman;fontSize=14;" vertex="1" parent="1">
          <mxGeometry x="2190" y="220" width="140" height="70" as="geometry" />
        </mxCell>
        <mxCell id="iGRNle9its00mOF3dHi1-76" style="edgeStyle=orthogonalEdgeStyle;rounded=0;orthogonalLoop=1;jettySize=auto;html=1;exitX=0.5;exitY=1;exitDx=0;exitDy=0;entryX=0.5;entryY=0;entryDx=0;entryDy=0;" edge="1" parent="1" source="iGRNle9its00mOF3dHi1-70" target="iGRNle9its00mOF3dHi1-71">
          <mxGeometry relative="1" as="geometry" />
        </mxCell>
        <mxCell id="iGRNle9its00mOF3dHi1-70" value="Сохранение смещения результирующего буфера" style="rounded=0;whiteSpace=wrap;html=1;fillColor=none;fontFamily=Times New Roman;fontSize=14;" vertex="1" parent="1">
          <mxGeometry x="2470" y="220" width="140" height="70" as="geometry" />
        </mxCell>
        <mxCell id="iGRNle9its00mOF3dHi1-77" style="edgeStyle=orthogonalEdgeStyle;rounded=0;orthogonalLoop=1;jettySize=auto;html=1;exitX=0.5;exitY=1;exitDx=0;exitDy=0;entryX=0.5;entryY=0;entryDx=0;entryDy=0;" edge="1" parent="1" source="iGRNle9its00mOF3dHi1-71" target="iGRNle9its00mOF3dHi1-72">
          <mxGeometry relative="1" as="geometry" />
        </mxCell>
        <mxCell id="iGRNle9its00mOF3dHi1-71" value="Обновление размера буфера" style="rounded=0;whiteSpace=wrap;html=1;fillColor=none;fontFamily=Times New Roman;fontSize=14;" vertex="1" parent="1">
          <mxGeometry x="2470" y="310" width="140" height="70" as="geometry" />
        </mxCell>
        <mxCell id="iGRNle9its00mOF3dHi1-81" style="edgeStyle=orthogonalEdgeStyle;rounded=0;orthogonalLoop=1;jettySize=auto;html=1;exitX=0.5;exitY=1;exitDx=0;exitDy=0;entryX=0.5;entryY=0;entryDx=0;entryDy=0;" edge="1" parent="1" source="iGRNle9its00mOF3dHi1-72" target="iGRNle9its00mOF3dHi1-78">
          <mxGeometry relative="1" as="geometry" />
        </mxCell>
        <mxCell id="iGRNle9its00mOF3dHi1-72" value="Вызов диспетчеризатора" style="rounded=0;whiteSpace=wrap;html=1;fillColor=none;fontFamily=Times New Roman;fontSize=14;" vertex="1" parent="1">
          <mxGeometry x="2470" y="395" width="140" height="70" as="geometry" />
        </mxCell>
        <mxCell id="iGRNle9its00mOF3dHi1-73" value="(struct svc_process_info).dispatch&lt;div&gt;-&amp;gt; (struct svc_version).vs_dispatch&lt;/div&gt;" style="strokeWidth=1;html=1;shape=mxgraph.flowchart.annotation_1;align=left;pointerEvents=1;fontFamily=Times New Roman;fontSize=14;labelPosition=right;verticalLabelPosition=middle;verticalAlign=middle;" vertex="1" parent="1">
          <mxGeometry x="2630" y="415" width="10" height="30" as="geometry" />
        </mxCell>
        <mxCell id="iGRNle9its00mOF3dHi1-74" style="edgeStyle=orthogonalEdgeStyle;rounded=0;orthogonalLoop=1;jettySize=auto;html=1;exitX=1;exitY=0.5;exitDx=0;exitDy=0;entryX=0;entryY=0.5;entryDx=0;entryDy=0;entryPerimeter=0;endArrow=none;endFill=0;dashed=1;" edge="1" parent="1" target="iGRNle9its00mOF3dHi1-73" source="iGRNle9its00mOF3dHi1-72">
          <mxGeometry relative="1" as="geometry">
            <mxPoint x="2610" y="430" as="sourcePoint" />
          </mxGeometry>
        </mxCell>
        <mxCell id="iGRNle9its00mOF3dHi1-83" style="edgeStyle=orthogonalEdgeStyle;rounded=0;orthogonalLoop=1;jettySize=auto;html=1;exitX=0.5;exitY=1;exitDx=0;exitDy=0;entryX=0.5;entryY=0;entryDx=0;entryDy=0;" edge="1" parent="1" source="iGRNle9its00mOF3dHi1-78" target="iGRNle9its00mOF3dHi1-82">
          <mxGeometry relative="1" as="geometry" />
        </mxCell>
        <mxCell id="iGRNle9its00mOF3dHi1-78" value="Освободить выделенную память" style="rounded=0;whiteSpace=wrap;html=1;fillColor=none;fontFamily=Times New Roman;fontSize=14;" vertex="1" parent="1">
          <mxGeometry x="2470" y="480" width="140" height="70" as="geometry" />
        </mxCell>
        <mxCell id="iGRNle9its00mOF3dHi1-79" value="(struct svc_procedure).pc_release" style="strokeWidth=1;html=1;shape=mxgraph.flowchart.annotation_1;align=left;pointerEvents=1;fontFamily=Times New Roman;fontSize=14;labelPosition=right;verticalLabelPosition=middle;verticalAlign=middle;" vertex="1" parent="1">
          <mxGeometry x="2630" y="500" width="10" height="30" as="geometry" />
        </mxCell>
        <mxCell id="iGRNle9its00mOF3dHi1-80" style="edgeStyle=orthogonalEdgeStyle;rounded=0;orthogonalLoop=1;jettySize=auto;html=1;exitX=1;exitY=0.5;exitDx=0;exitDy=0;entryX=0;entryY=0.5;entryDx=0;entryDy=0;entryPerimeter=0;endArrow=none;endFill=0;dashed=1;" edge="1" parent="1" target="iGRNle9its00mOF3dHi1-79">
          <mxGeometry relative="1" as="geometry">
            <mxPoint x="2610" y="515" as="sourcePoint" />
          </mxGeometry>
        </mxCell>
        <mxCell id="iGRNle9its00mOF3dHi1-85" style="edgeStyle=orthogonalEdgeStyle;rounded=0;orthogonalLoop=1;jettySize=auto;html=1;exitX=1;exitY=0.5;exitDx=0;exitDy=0;entryX=0.5;entryY=0;entryDx=0;entryDy=0;" edge="1" parent="1" source="iGRNle9its00mOF3dHi1-82" target="iGRNle9its00mOF3dHi1-84">
          <mxGeometry relative="1" as="geometry" />
        </mxCell>
        <mxCell id="iGRNle9its00mOF3dHi1-86" value="Да" style="edgeLabel;html=1;align=center;verticalAlign=middle;resizable=0;points=[];fontFamily=Times New Roman;" vertex="1" connectable="0" parent="iGRNle9its00mOF3dHi1-85">
          <mxGeometry x="0.3826" relative="1" as="geometry">
            <mxPoint y="-18" as="offset" />
          </mxGeometry>
        </mxCell>
        <mxCell id="iGRNle9its00mOF3dHi1-82" value="Ошибка&lt;div&gt;обработчика?&lt;/div&gt;" style="rhombus;whiteSpace=wrap;html=1;fillColor=none;fontFamily=Times New Roman;fontSize=12;" vertex="1" parent="1">
          <mxGeometry x="2470" y="570" width="140" height="70" as="geometry" />
        </mxCell>
        <mxCell id="iGRNle9its00mOF3dHi1-87" style="edgeStyle=orthogonalEdgeStyle;rounded=0;orthogonalLoop=1;jettySize=auto;html=1;exitX=0.5;exitY=1;exitDx=0;exitDy=0;entryX=0;entryY=0.5;entryDx=0;entryDy=0;endArrow=none;endFill=0;" edge="1" parent="1" source="iGRNle9its00mOF3dHi1-84" target="iGRNle9its00mOF3dHi1-82">
          <mxGeometry relative="1" as="geometry" />
        </mxCell>
        <mxCell id="iGRNle9its00mOF3dHi1-84" value="Обрезать результирующий буфер до сохраненного смещения" style="rounded=0;whiteSpace=wrap;html=1;fillColor=none;fontFamily=Times New Roman;fontSize=14;" vertex="1" parent="1">
          <mxGeometry x="2610" y="640" width="140" height="70" as="geometry" />
        </mxCell>
        <mxCell id="iGRNle9its00mOF3dHi1-90" style="edgeStyle=orthogonalEdgeStyle;rounded=0;orthogonalLoop=1;jettySize=auto;html=1;exitX=0.5;exitY=0;exitDx=0;exitDy=0;exitPerimeter=0;startArrow=classic;startFill=1;endArrow=none;endFill=0;" edge="1" parent="1" source="iGRNle9its00mOF3dHi1-89">
          <mxGeometry relative="1" as="geometry">
            <mxPoint x="2400.0404624277458" y="750" as="targetPoint" />
          </mxGeometry>
        </mxCell>
        <mxCell id="iGRNle9its00mOF3dHi1-89" value="А4" style="verticalLabelPosition=middle;verticalAlign=middle;html=1;shape=mxgraph.flowchart.on-page_reference;fillColor=none;labelPosition=center;align=center;fontFamily=Times New Roman;" vertex="1" parent="1">
          <mxGeometry x="2380" y="770" width="40" height="40" as="geometry" />
        </mxCell>
      </root>
    </mxGraphModel>
  </diagram>
</mxfile>
